<?xml version="1.0" encoding="utf-8"?>
<!-- Generator: Adobe Illustrator 25.4.1, SVG Export Plug-In . SVG Version: 6.00 Build 0)  -->
<svg version="1.1" xmlns="http://www.w3.org/2000/svg" xmlns:xlink="http://www.w3.org/1999/xlink" x="0px" y="0px"
	 viewBox="0 0 500 500" style="enable-background:new 0 0 500 500;" xml:space="preserve">
<style type="text/css">
	.st0{fill:#DC3545;}
	.st1{fill:#EBEBEB;}
	.st2{fill:#F0F0F0;}
	.st3{fill:#F5F5F5;}
	.st4{fill:#E6E6E6;}
	.st5{fill:#E0E0E0;}
	.st6{fill:#407BFF;}
	.st7{opacity:0.3;fill:#FFFFFF;}
	.st8{opacity:0.4;fill:#FFFFFF;}
	.st9{fill:#FFFFFF;}
	.st10{opacity:0.1;}
	.st11{opacity:0.8;}
	.st12{opacity:0.6;}
	.st13{fill:#263238;}
	.st14{opacity:0.2;}
	.st15{opacity:0.7;fill:#FFFFFF;}
	.st16{opacity:0.5;fill:#FFFFFF;}
	.st17{opacity:0.2;fill:#FFFFFF;}
	.st18{fill:#B55B52;}
	.st19{fill:#A02724;}
	.st20{opacity:0.4;}
	.st21{opacity:0.6;fill:#FAFAFA;}
	.st22{opacity:0.6;fill:#FFFFFF;}
</style>
<g id="Background_Simple">
	<rect class="st0" width="500" height="500"/>
</g>
<g id="Background_Complete">
	<rect x="416.78" y="398.49" class="st1" width="33.12" height="0.25"/>
	<rect x="322.53" y="401.21" class="st1" width="8.69" height="0.25"/>
	<rect x="396.59" y="389.21" class="st1" width="19.19" height="0.25"/>
	<rect x="52.46" y="390.89" class="st1" width="43.19" height="0.25"/>
	<rect x="104.56" y="390.89" class="st1" width="6.33" height="0.25"/>
	<rect x="131.47" y="395.11" class="st1" width="93.68" height="0.25"/>
	<g>
		<path class="st1" d="M238.4,337.8H45.3c-3.15,0-5.71-2.56-5.71-5.71V60.66c0-3.15,2.56-5.71,5.71-5.71h193.1
			c3.15,0,5.71,2.56,5.71,5.71v271.43C244.11,335.24,241.55,337.8,238.4,337.8z M45.3,55.2c-3.01,0-5.46,2.45-5.46,5.46v271.43
			c0,3.01,2.45,5.46,5.46,5.46h193.1c3.01,0,5.46-2.45,5.46-5.46V60.66c0-3.01-2.45-5.46-5.46-5.46H45.3z"/>
		<path class="st1" d="M454.7,337.8H261.6c-3.15,0-5.71-2.56-5.71-5.71V60.66c0-3.15,2.56-5.71,5.71-5.71h193.1
			c3.15,0,5.71,2.56,5.71,5.71v271.43C460.41,335.24,457.85,337.8,454.7,337.8z M261.6,55.2c-3.01,0-5.46,2.45-5.46,5.46v271.43
			c0,3.01,2.45,5.46,5.46,5.46h193.1c3.01,0,5.46-2.45,5.46-5.46V60.66c0-3.01-2.45-5.46-5.46-5.46H261.6z"/>
	</g>
	<rect y="382.4" class="st1" width="500" height="0.25"/>
	<g>
		<path class="st2" d="M119.33,314.75c-0.84-9.66-10.7-13.27-22.39-12.25c-11.68,1.02-20.76,6.3-19.92,15.95L119.33,314.75z"/>
		<path class="st2" d="M96.56,298.09c5.42-0.47,7.15-5.05,6.68-10.48c-0.47-5.42-2.97-9.63-8.4-9.16
			c-5.42,0.47-7.15,5.05-6.68,10.48C88.64,294.35,91.14,298.56,96.56,298.09z"/>
	</g>
	<g>
		<g>
			<path class="st3" d="M340.1,108.97c0.26,2.99-1.95,5.63-4.94,5.89c-2.99,0.26-5.63-1.95-5.89-4.94
				c-0.26-2.99,1.95-5.63,4.94-5.89C337.2,103.77,339.84,105.98,340.1,108.97z"/>
			<path class="st3" d="M370.17,106.34c0.26,2.99-1.95,5.63-4.94,5.89c-2.99,0.26-5.63-1.95-5.89-4.94
				c-0.26-2.99,1.95-5.63,4.94-5.89C367.28,101.14,369.91,103.35,370.17,106.34z"/>
			<path class="st3" d="M400.25,103.71c0.26,2.99-1.95,5.63-4.94,5.89c-2.99,0.26-5.63-1.95-5.89-4.94
				c-0.26-2.99,1.95-5.63,4.94-5.89C397.35,98.51,399.98,100.72,400.25,103.71z"/>
			<path class="st3" d="M342.78,139.62c0.26,2.99-1.95,5.63-4.94,5.89c-2.99,0.26-5.63-1.95-5.89-4.94
				c-0.26-2.99,1.95-5.63,4.94-5.89C339.88,134.42,342.52,136.63,342.78,139.62z"/>
			<path class="st3" d="M372.85,136.99c0.26,2.99-1.95,5.63-4.94,5.89c-2.99,0.26-5.63-1.95-5.89-4.94
				c-0.26-2.99,1.95-5.63,4.94-5.89C369.96,131.79,372.59,134,372.85,136.99z"/>
			<path class="st3" d="M402.93,134.36c0.26,2.99-1.95,5.63-4.94,5.89c-2.99,0.26-5.63-1.95-5.89-4.94
				c-0.26-2.99,1.95-5.63,4.94-5.89C400.03,129.16,402.67,131.37,402.93,134.36z"/>
			<path class="st3" d="M345.46,170.28c0.26,2.99-1.95,5.63-4.94,5.89c-2.99,0.26-5.63-1.95-5.89-4.94
				c-0.26-2.99,1.95-5.63,4.94-5.89C342.57,165.07,345.2,167.29,345.46,170.28z"/>
			<path class="st3" d="M375.54,167.64c0.26,2.99-1.95,5.63-4.94,5.89c-2.99,0.26-5.63-1.95-5.89-4.94
				c-0.26-2.99,1.95-5.63,4.94-5.89C372.64,162.44,375.27,164.65,375.54,167.64z"/>
			<path class="st3" d="M405.61,165.01c0.26,2.99-1.95,5.63-4.94,5.89s-5.63-1.95-5.89-4.94c-0.26-2.99,1.95-5.63,4.94-5.89
				C402.71,159.81,405.35,162.02,405.61,165.01z"/>
		</g>
		<g>
			<path class="st4" d="M399.11,166.78l-61.79,5.41l54.78-66.57l-56.13,4.91c-0.66,0.06-1.23-0.43-1.29-1.08l0,0
				c-0.06-0.66,0.43-1.23,1.08-1.29l61.79-5.41l-54.78,66.57l56.13-4.91c0.66-0.06,1.23,0.43,1.29,1.08l0,0
				C400.25,166.14,399.77,166.72,399.11,166.78z"/>
		</g>
	</g>
	<g>
		<path class="st2" d="M400.06,285.61c-0.2-0.59-0.73-1.03-1.35-1.07c-2.83-0.19-5.23-1.25-7.12-3.15
			c-2.47-2.48-3.92-6.26-4.16-10.74c-0.04-0.84-0.74-1.49-1.58-1.49h0c-0.93-0.01-1.66,0.78-1.61,1.7
			c0.29,5.26,2.06,9.75,5.09,12.79c2.36,2.37,5.41,3.76,8.88,4.06c0.06,0.01,0.14,0.01,0.23,0.02
			C399.57,287.82,400.44,286.7,400.06,285.61z"/>
		<g>
			<g>
				<path class="st2" d="M396.86,304.8c-13.25-1.16-22.81-10.19-25.84-24.29c-0.19-0.9,0.38-1.78,1.29-1.94l0,0
					c0.84-0.15,1.65,0.39,1.83,1.22c2.71,12.68,11.22,20.8,23,21.83c12.92,1.13,26.79-7.37,29.27-28.79
					c0.1-0.87,0.86-1.51,1.73-1.43l0,0c0.89,0.08,1.56,0.87,1.45,1.76C427.22,293.35,413.94,306.29,396.86,304.8z"/>
			</g>
			<g>
				<path class="st2" d="M371.86,266.46L371.86,266.46c-0.89-0.08-1.56-0.87-1.45-1.76c2.38-20.2,15.66-33.15,32.74-31.65
					c14.96,1.31,25.04,12.51,26.62,29.38c0.08,0.89-0.61,1.67-1.5,1.72l0,0c-0.87,0.05-1.61-0.61-1.69-1.47
					c-1.44-15.2-10.42-25.27-23.7-26.44c-12.92-1.13-26.79,7.37-29.27,28.79C373.49,265.9,372.73,266.54,371.86,266.46z"/>
			</g>
			<g>
				<path class="st2" d="M397.51,296.23c-2.46-0.22-4.77-0.79-6.9-1.72c-0.86-0.38-1.22-1.42-0.77-2.24l0,0
					c0.39-0.72,1.27-1.03,2.02-0.7c1.99,0.88,4.2,1.39,6.57,1.52c9.8,0.56,20.14-6.38,21.15-23.14c0.62-10.33-2.91-18.67-9.52-22.66
					c-0.71-0.43-0.97-1.32-0.61-2.07l0,0c0.41-0.84,1.47-1.15,2.27-0.67c7.64,4.61,11.75,14.03,11.05,25.58
					c-0.98,16.17-11.06,26.92-24.53,26.15C398.01,296.27,397.76,296.25,397.51,296.23z"/>
			</g>
			<g>
				<path class="st2" d="M383.27,286.26c-0.77,0.53-1.83,0.28-2.3-0.53c-2.84-4.9-4.16-11.23-3.75-18.02
					c0.93-15.47,10.21-25.98,22.8-26.18c0.93-0.02,1.69,0.77,1.64,1.7l0,0c-0.05,0.83-0.72,1.49-1.56,1.5
					c-9.34,0.18-18.72,7.24-19.68,23.17c-0.37,6.18,0.81,11.89,3.34,16.26C384.17,284.88,383.95,285.79,383.27,286.26L383.27,286.26
					z"/>
			</g>
			<g>
				<path class="st2" d="M405.13,284.95L405.13,284.95c-0.33-0.74-0.04-1.6,0.65-2.02c4.2-2.53,6.79-7.85,6.83-14.25
					c0.03-5.13-1.45-9.47-4.19-12.22c-2.11-2.12-4.84-3.19-8.12-3.18c-4.93,0.01-8.92,2.71-11.13,7.47
					c-0.35,0.75-1.21,1.1-1.99,0.82l0,0c-0.88-0.32-1.3-1.34-0.9-2.19c2.74-5.84,7.87-9.28,14.02-9.3c4.1-0.01,7.69,1.42,10.39,4.13
					c3.35,3.36,5.17,8.51,5.13,14.5c-0.05,7.56-3.23,13.9-8.42,17C406.58,286.19,405.51,285.82,405.13,284.95z"/>
			</g>
			<g>
				<path class="st2" d="M393.61,273.19c-0.91,0.37-1.93-0.16-2.16-1.11c-0.11-0.43-0.19-0.88-0.26-1.34
					c-0.91-5.98,2.31-11.19,7.48-12.12c2.67-0.48,5.05,0.15,6.87,1.77c0.74,0.66,0.68,1.84-0.12,2.41l-0.1,0.07
					c-0.61,0.43-1.4,0.34-1.97-0.15c-1.08-0.93-2.46-1.25-4.11-0.96c-3.94,0.7-5.44,4.8-4.88,8.49c0.05,0.36,0.12,0.71,0.2,1.04
					C394.75,272.09,394.36,272.89,393.61,273.19L393.61,273.19z"/>
			</g>
			<g>
				<path class="st2" d="M398.9,279.35c0,0-0.01,0-0.01,0c-1.1-0.1-1.71-1.33-1.12-2.27l0.14-0.22c0.3-0.47,0.82-0.73,1.38-0.69
					c0.47,0.03,0.98,0,1.5-0.09c3.44-0.62,5.02-3.82,4.99-7.08c-0.01-0.81,0.56-1.51,1.36-1.64l0,0c0.94-0.14,1.83,0.56,1.84,1.51
					c0.1,5.22-2.98,9.53-7.63,10.36C400.5,279.38,399.68,279.42,398.9,279.35z"/>
			</g>
			<g>
				<path class="st2" d="M399.61,273.44c-1.7-0.15-2.97-1.3-3.44-2.94c-0.27-0.95,0.53-1.87,1.51-1.78l0.37,0.03
					c0.57,0.05,1.04,0.44,1.23,0.98c0.09,0.26,0.27,0.49,0.6,0.52c0.77,0.07,0.9-1.04,0.92-1.26c0.01-0.16,0.05-0.77-0.22-1.13
					c-0.26-0.35-0.43-0.76-0.39-1.2l0,0c0.12-1.42,1.92-2,2.83-0.89c0.72,0.88,1.09,2.11,0.97,3.5
					C403.77,271.89,401.92,273.64,399.61,273.44z"/>
			</g>
			<g>
				<path class="st2" d="M369.53,237.65L369.53,237.65c-0.88-0.08-1.53-0.85-1.45-1.73l1.21-13.87l13.87,1.21
					c0.88,0.08,1.53,0.85,1.45,1.73l0,0c-0.08,0.88-0.85,1.53-1.73,1.46l-10.68-0.93l-0.93,10.68
					C371.19,237.08,370.41,237.73,369.53,237.65z"/>
			</g>
			<g>
				<path class="st2" d="M435.46,243.42L435.46,243.42c-0.88-0.08-1.53-0.85-1.45-1.73l0.93-10.68l-10.68-0.93
					c-0.88-0.08-1.53-0.85-1.45-1.73l0,0c0.08-0.88,0.85-1.53,1.73-1.45l13.87,1.21l-1.21,13.87
					C437.12,242.85,436.34,243.5,435.46,243.42z"/>
			</g>
			<g>
				<path class="st2" d="M430.55,317.97l-13.87-1.21c-0.88-0.08-1.53-0.85-1.45-1.73l0,0c0.08-0.88,0.85-1.53,1.73-1.45l10.68,0.93
					l0.93-10.68c0.08-0.88,0.85-1.53,1.73-1.46l0,0c0.88,0.08,1.53,0.85,1.46,1.73L430.55,317.97z"/>
			</g>
			<g>
				<path class="st2" d="M375.3,313.14l-13.87-1.21l1.21-13.87c0.08-0.88,0.85-1.53,1.73-1.45l0,0c0.88,0.08,1.53,0.85,1.45,1.73
					l-0.93,10.68l10.68,0.93c0.88,0.08,1.53,0.85,1.46,1.73l0,0C376.95,312.56,376.18,313.21,375.3,313.14z"/>
			</g>
		</g>
	</g>
	<g>
		<path class="st5" d="M74.73,283.13L74.73,283.13c-0.54,0.05-1.02-0.35-1.07-0.89l-0.75-8.53l8.53-0.75
			c0.54-0.05,1.02,0.35,1.07,0.89l0,0c0.05,0.54-0.35,1.02-0.89,1.07l-6.56,0.57l0.57,6.56C75.67,282.6,75.27,283.08,74.73,283.13z"
			/>
	</g>
	<g>
		<path class="st5" d="M115.27,279.58L115.27,279.58c-0.54,0.05-1.02-0.35-1.07-0.89l-0.57-6.56l-6.56,0.57
			c-0.54,0.05-1.02-0.35-1.07-0.89l0,0c-0.05-0.54,0.35-1.02,0.89-1.07l8.53-0.75l0.75,8.53
			C116.21,279.06,115.81,279.53,115.27,279.58z"/>
	</g>
	<g>
		<path class="st5" d="M119.47,316.29l-8.53,0.75c-0.54,0.05-1.02-0.35-1.07-0.89l0,0c-0.05-0.54,0.35-1.02,0.89-1.07l6.56-0.57
			l-0.57-6.56c-0.05-0.54,0.35-1.02,0.89-1.07l0,0c0.54-0.05,1.02,0.35,1.07,0.89L119.47,316.29z"/>
	</g>
	<g>
		<path class="st5" d="M85.49,319.26l-8.53,0.75l-0.75-8.53c-0.05-0.54,0.35-1.02,0.89-1.07l0,0c0.54-0.05,1.02,0.35,1.07,0.89
			l0.57,6.56l6.56-0.57c0.54-0.05,1.02,0.35,1.07,0.89l0,0C86.44,318.74,86.04,319.21,85.49,319.26z"/>
	</g>
	<path class="st1" d="M114.58,140.95l-32.63,2.85l-0.67-7.64c-0.69-7.92,5.19-14.93,13.11-15.62c7.92-0.69,14.93,5.19,15.62,13.11
		l0.39,4.44l4.71-0.41l-0.39-4.44c-0.92-10.52-10.22-18.33-20.74-17.41c-10.52,0.92-18.33,10.23-17.41,20.74l0.67,7.68
		c-3.8,0.74-6.5,4.24-6.16,8.18l2.33,26.64c0.37,4.21,4.08,7.33,8.3,6.96l36.53-3.2c4.21-0.37,7.33-4.08,6.96-8.3l-2.33-26.64
		C122.51,143.7,118.8,140.58,114.58,140.95z M100.72,161.48l0.8,9.17c0.13,1.51-0.98,2.83-2.49,2.97c-1.51,0.13-2.83-0.98-2.97-2.49
		l-0.8-9.17c-1.2-0.74-2.05-2-2.19-3.51c-0.22-2.53,1.65-4.77,4.19-4.99c2.53-0.22,4.77,1.65,4.99,4.19
		C102.4,159.15,101.77,160.54,100.72,161.48z"/>
	<g>
		<path class="st2" d="M170.44,156.39l-3.3-5.38c-1.79,0.25-3.25,0.25-5.04,0l-3.3,5.38l-0.63-0.17c-2.13-0.57-4.18-1.42-6.1-2.53
			l-0.57-0.33l1.4-5.84c0.11-0.47,0.59-0.76,1.06-0.65l0,0c0.47,0.11,0.76,0.59,0.65,1.06l-1.09,4.55c1.43,0.78,2.92,1.4,4.47,1.86
			l3.22-5.25l0.58,0.1c1.87,0.31,3.77,0.31,5.64,0l0.58-0.1l3.22,5.25c1.54-0.46,3.04-1.08,4.47-1.86l-1.43-5.98l0.48-0.34
			c1.31-0.94,2.47-2.05,3.47-3.31c0.3-0.37,0.83-0.46,1.21-0.18l0,0c0.4,0.29,0.5,0.86,0.19,1.25c-0.98,1.24-2.11,2.35-3.37,3.32
			l1.47,6.13l-0.57,0.33c-1.92,1.11-3.97,1.96-6.1,2.53L170.44,156.39z M150.22,144.65c-0.28-0.32-0.55-0.64-0.8-0.98l-6.13,1.47
			l-0.33-0.57c-1.11-1.92-1.96-3.97-2.53-6.1l-0.17-0.63l5.38-3.3c-0.12-0.9-0.18-1.72-0.18-2.52c0-0.79,0.06-1.62,0.18-2.52
			l-5.38-3.3l0.17-0.63c0.57-2.13,1.42-4.18,2.53-6.1l0.33-0.57l6.13,1.47c1.03-1.34,2.22-2.53,3.56-3.56l-1.11-4.64
			c-0.11-0.47,0.18-0.95,0.65-1.06l0,0c0.47-0.11,0.95,0.18,1.06,0.65l1.38,5.78l-0.48,0.35c-1.54,1.11-2.88,2.45-3.99,3.99
			l-0.34,0.48l-5.99-1.43c-0.77,1.43-1.4,2.92-1.85,4.47l5.25,3.22l-0.09,0.58c-0.17,1.03-0.25,1.95-0.25,2.82
			c0,0.87,0.08,1.79,0.25,2.82l0.1,0.58l-5.25,3.22c0.46,1.54,1.08,3.04,1.85,4.47l5.99-1.43l0.34,0.48
			c0.33,0.45,0.67,0.89,1.04,1.31c0.31,0.35,0.3,0.87-0.04,1.2l-0.03,0.03C151.12,145.05,150.55,145.02,150.22,144.65z
			 M185.96,145.14l-2.26-0.54c-0.47-0.11-0.76-0.59-0.65-1.06l0,0c0.11-0.47,0.59-0.76,1.06-0.65l0.98,0.23
			c0.77-1.43,1.4-2.92,1.85-4.47l-5.25-3.22l0.1-0.58c0.17-1.03,0.25-1.95,0.25-2.82c0-0.87-0.08-1.79-0.25-2.82l-0.1-0.58
			l5.25-3.22c-0.46-1.54-1.08-3.04-1.85-4.47l-5.99,1.43l-0.35-0.48c-1.11-1.54-2.45-2.88-3.99-3.99l-0.48-0.35l1.43-5.99
			c-1.43-0.78-2.92-1.4-4.47-1.86l-3.22,5.25l-0.58-0.09c-1.87-0.3-3.77-0.3-5.64,0l-0.58,0.09l-3.22-5.25
			c-0.2,0.06-0.4,0.12-0.6,0.19c-0.45,0.15-0.93-0.09-1.09-0.53l0,0c-0.17-0.46,0.07-0.98,0.54-1.14c0.44-0.14,0.88-0.27,1.32-0.39
			l0.63-0.17l3.3,5.38c1.79-0.25,3.24-0.25,5.04,0l3.3-5.38l0.63,0.17c2.13,0.57,4.18,1.42,6.1,2.53l0.57,0.33l-1.47,6.13
			c1.34,1.03,2.53,2.22,3.56,3.56l6.13-1.47l0.33,0.57c1.11,1.92,1.96,3.97,2.53,6.1l0.17,0.63l-5.38,3.3
			c0.12,0.9,0.18,1.73,0.18,2.52c0,0.79-0.06,1.62-0.18,2.52l5.38,3.3l-0.17,0.63c-0.57,2.13-1.42,4.18-2.53,6.1L185.96,145.14z
			 M164.38,140.6c-4.47-0.13-8.19-3.85-8.32-8.32c-0.13-4.5,3.24-8.26,7.58-8.77c0.52-0.06,0.99,0.35,0.99,0.88v0
			c0,0.44-0.33,0.82-0.77,0.87c-3.83,0.43-6.71,4.06-5.91,8.14c0.52,2.65,2.66,4.79,5.31,5.31c4.35,0.85,8.18-2.48,8.18-6.68
			c0-1.41-0.43-2.77-1.23-3.91c-0.25-0.36-0.18-0.85,0.15-1.14l0,0c0.4-0.35,1.01-0.28,1.31,0.16c1,1.43,1.53,3.14,1.53,4.9
			C173.2,136.84,169.22,140.74,164.38,140.6z"/>
	</g>
	<g>
		<path class="st4" d="M108.31,229.59l-2.13-3.47c-1.15,0.16-2.1,0.16-3.25,0l-2.13,3.47l-0.41-0.11c-1.37-0.37-2.7-0.92-3.94-1.63
			l-0.37-0.21l0.9-3.77c0.07-0.31,0.38-0.49,0.69-0.42l0,0c0.31,0.07,0.49,0.38,0.42,0.69l-0.71,2.94c0.92,0.5,1.89,0.9,2.89,1.2
			l2.08-3.39l0.38,0.06c1.21,0.2,2.44,0.2,3.64,0l0.38-0.06l2.08,3.39c1-0.3,1.96-0.7,2.89-1.2l-0.93-3.87l0.31-0.22
			c0.85-0.61,1.6-1.32,2.24-2.14c0.19-0.24,0.53-0.3,0.78-0.12l0,0c0.26,0.19,0.32,0.56,0.12,0.81c-0.64,0.8-1.37,1.52-2.18,2.14
			l0.95,3.96l-0.37,0.21c-1.24,0.72-2.56,1.27-3.94,1.63L108.31,229.59z M95.25,222.01c-0.18-0.2-0.35-0.42-0.52-0.63l-3.96,0.95
			l-0.21-0.37c-0.72-1.24-1.27-2.56-1.63-3.94l-0.11-0.41l3.47-2.13c-0.08-0.58-0.12-1.11-0.12-1.63c0-0.51,0.04-1.05,0.12-1.63
			l-3.47-2.13l0.11-0.41c0.37-1.37,0.92-2.7,1.63-3.94l0.21-0.37l3.96,0.95c0.66-0.87,1.44-1.64,2.3-2.3l-0.72-3
			c-0.07-0.3,0.11-0.61,0.42-0.68l0,0c0.3-0.07,0.61,0.11,0.68,0.42l0.89,3.73L98,204.73c-0.99,0.71-1.86,1.58-2.58,2.58l-0.22,0.31
			l-3.87-0.93c-0.5,0.92-0.9,1.89-1.2,2.89l3.39,2.08l-0.06,0.38c-0.11,0.67-0.16,1.26-0.16,1.82c0,0.56,0.05,1.16,0.16,1.82
			l0.06,0.38l-3.39,2.08c0.3,1,0.7,1.97,1.2,2.89l3.87-0.93l0.22,0.31c0.21,0.29,0.44,0.58,0.67,0.85c0.2,0.23,0.19,0.56-0.02,0.77
			l-0.02,0.02C95.83,222.26,95.46,222.25,95.25,222.01z M118.34,222.32l-1.46-0.35c-0.31-0.07-0.49-0.38-0.42-0.69l0,0
			c0.07-0.31,0.38-0.49,0.69-0.42l0.63,0.15c0.5-0.92,0.9-1.89,1.2-2.89l-3.39-2.08l0.06-0.38c0.11-0.67,0.16-1.26,0.16-1.82
			c0-0.56-0.05-1.16-0.16-1.82l-0.06-0.38l3.39-2.08c-0.3-1-0.7-1.97-1.2-2.89l-3.87,0.93l-0.22-0.31
			c-0.71-0.99-1.58-1.86-2.58-2.58l-0.31-0.22l0.93-3.87c-0.92-0.5-1.89-0.9-2.89-1.2l-2.08,3.39l-0.38-0.06
			c-1.21-0.2-2.44-0.2-3.65,0l-0.38,0.06l-2.08-3.39c-0.13,0.04-0.26,0.08-0.39,0.12c-0.29,0.09-0.6-0.06-0.7-0.35l0,0
			c-0.11-0.3,0.05-0.64,0.35-0.74c0.28-0.09,0.57-0.18,0.85-0.25l0.41-0.11l2.13,3.47c1.16-0.16,2.09-0.16,3.25,0l2.13-3.47
			l0.41,0.11c1.37,0.37,2.7,0.92,3.94,1.63l0.37,0.21l-0.95,3.96c0.87,0.66,1.64,1.44,2.3,2.3l3.96-0.95l0.21,0.37
			c0.72,1.24,1.27,2.56,1.63,3.94l0.11,0.41l-3.47,2.13c0.08,0.58,0.12,1.11,0.12,1.63c0,0.51-0.04,1.05-0.12,1.63l3.47,2.13
			l-0.11,0.41c-0.37,1.37-0.92,2.7-1.63,3.94L118.34,222.32z M104.4,219.39c-2.89-0.08-5.29-2.49-5.38-5.37
			c-0.08-2.91,2.09-5.34,4.9-5.66c0.34-0.04,0.64,0.23,0.64,0.57l0,0c0,0.29-0.21,0.53-0.5,0.56c-2.47,0.28-4.33,2.62-3.82,5.26
			c0.34,1.71,1.72,3.09,3.43,3.43c2.81,0.55,5.28-1.6,5.28-4.31c0-0.91-0.28-1.79-0.8-2.53c-0.16-0.23-0.12-0.55,0.09-0.74l0,0
			c0.26-0.23,0.65-0.18,0.85,0.1c0.64,0.92,0.99,2.03,0.99,3.16C110.09,216.96,107.52,219.48,104.4,219.39z"/>
	</g>
</g>
<g id="Shadow">
	<ellipse id="_x3C_Path_x3E__359_" class="st3" cx="250" cy="415.69" rx="193.89" ry="11.32"/>
</g>
<g id="Device">
	<g>
		<path class="st6" d="M363.45,145.83h-32.56l-23.03,263.25h32.56c9.26,0,17.45-7.53,18.26-16.79l20.09-229.66
			C379.58,153.36,372.71,145.83,363.45,145.83z"/>
		<path class="st6" d="M356.81,145.83h-110.2c-9.26,0-17.45,7.53-18.26,16.79l-20.09,229.66c-0.81,9.26,6.06,16.79,15.32,16.79
			h110.2c9.26,0,17.45-7.53,18.26-16.79l20.09-229.66C372.94,153.36,366.07,145.83,356.81,145.83z"/>
		<path class="st7" d="M356.81,145.83h-110.2c-9.26,0-17.45,7.53-18.26,16.79l-20.09,229.66c-0.81,9.26,6.06,16.79,15.32,16.79
			h110.2c9.26,0,17.45-7.53,18.26-16.79l20.09-229.66C372.94,153.36,366.07,145.83,356.81,145.83z"/>
		<path class="st8" d="M356.34,151.21h-29.05c-1.71,0-3.32,1.12-3.96,2.77l0,0c-2.35,6.07-8.3,10.23-14.63,10.23h-17.18
			c-6.34,0-11.56-4.16-12.84-10.23v0c-0.35-1.64-1.76-2.77-3.47-2.77h-29.05c-6.3,0-11.86,5.11-12.41,11.41l-20.09,229.66
			c-0.55,6.3,4.11,11.41,10.41,11.41h110.2c6.3,0,11.86-5.11,12.41-11.41l20.09-229.66C367.3,156.32,362.64,151.21,356.34,151.21z"
			/>
		<path class="st9" d="M328.88,275.96h-77.12c-2.29,0-3.98-1.85-3.78-4.14l0.39-4.41c0.2-2.29,2.22-4.14,4.5-4.14h77.12
			c2.29,0,3.98,1.85,3.78,4.14l-0.39,4.41C333.19,274.1,331.17,275.96,328.88,275.96z"/>
		<path class="st9" d="M327.22,295h-77.12c-2.29,0-3.98-1.85-3.78-4.14l0.39-4.41c0.2-2.29,2.22-4.14,4.5-4.14h77.12
			c2.29,0,3.98,1.85,3.78,4.14l-0.39,4.41C331.52,293.14,329.5,295,327.22,295z"/>
		<path class="st10" d="M305.45,155.51c-0.22,2.54-2.46,4.59-4.99,4.59c-2.54,0-4.41-2.06-4.19-4.59c0.22-2.54,2.46-4.59,4.99-4.59
			C303.8,150.92,305.67,152.97,305.45,155.51z"/>
		<path class="st10" d="M303.37,155.51c-0.12,1.39-1.34,2.51-2.73,2.51c-1.39,0-2.41-1.12-2.29-2.51c0.12-1.39,1.34-2.51,2.73-2.51
			C302.46,153,303.49,154.12,303.37,155.51z"/>
		<g>
			<g class="st11">
				<path class="st9" d="M342.77,163.17L342.77,163.17c-0.74,0-1.29-0.6-1.23-1.35l0.22-2.46c0.07-0.74,0.72-1.35,1.46-1.35l0,0
					c0.74,0,1.29,0.6,1.23,1.35l-0.22,2.46C344.17,162.56,343.51,163.17,342.77,163.17z"/>
				<path class="st9" d="M353.53,163.17L353.53,163.17c-0.74,0-1.29-0.6-1.23-1.35l0.5-5.77c0.07-0.74,0.72-1.35,1.46-1.35l0,0
					c0.74,0,1.29,0.6,1.23,1.35l-0.5,5.77C354.93,162.56,354.27,163.17,353.53,163.17z"/>
				<path class="st9" d="M348.15,163.17L348.15,163.17c-0.74,0-1.29-0.6-1.23-1.35l0.36-4.11c0.07-0.74,0.72-1.35,1.46-1.35l0,0
					c0.74,0,1.29,0.6,1.23,1.35l-0.36,4.11C349.55,162.56,348.89,163.17,348.15,163.17z"/>
			</g>
			<g class="st11">
				<path class="st9" d="M250.64,163.17h-6.76c-0.42,0-0.73-0.34-0.69-0.76l0.32-3.63c0.04-0.42,0.41-0.76,0.83-0.76h6.76
					c0.42,0,0.73,0.34,0.69,0.76l-0.32,3.63C251.43,162.83,251.06,163.17,250.64,163.17z"/>
				<path class="st9" d="M253.77,162.18L253.77,162.18c-0.42,0-0.73-0.34-0.69-0.76l0.15-1.66c0.04-0.42,0.41-0.76,0.83-0.76l0,0
					c0.42,0,0.73,0.34,0.69,0.76l-0.15,1.66C254.56,161.84,254.19,162.18,253.77,162.18z"/>
			</g>
		</g>
		
			<ellipse transform="matrix(0.7224 -0.6915 0.6915 0.7224 -73.4882 266.2137)" class="st9" cx="294.81" cy="224.63" rx="33.73" ry="30.9"/>
		<g>
			<path class="st6" d="M294.92,223.38c-8.49,0-15.65,3.23-16.26,10.24l-0.68,7.78h30.73l0.68-7.78
				C310,226.61,303.41,223.38,294.92,223.38z"/>
			<path class="st6" d="M295.2,220.17c3.94,0,5.75-3.19,6.1-7.13c0.34-3.94-0.91-7.13-4.85-7.13c-3.94,0-5.75,3.19-6.1,7.13
				C290.01,216.98,291.26,220.17,295.2,220.17z"/>
		</g>
		<g>
			<path class="st6" d="M325.36,269.38c-2.1,0-3.86,0.8-4.02,2.53l-0.17,1.92h7.59l0.17-1.92
				C329.09,270.18,327.46,269.38,325.36,269.38z"/>
			<path class="st6" d="M325.43,268.59c0.97,0,1.42-0.79,1.51-1.76c0.09-0.97-0.23-1.76-1.2-1.76c-0.97,0-1.42,0.79-1.51,1.76
				C324.15,267.8,324.46,268.59,325.43,268.59z"/>
		</g>
		<path class="st6" d="M301.99,314.04h-30.01c-3.51,0-6.1-2.84-5.79-6.35v0c0.31-3.51,3.4-6.35,6.9-6.35h30.01
			c3.51,0,6.1,2.84,5.79,6.35v0C308.59,311.2,305.5,314.04,301.99,314.04z"/>
		<path class="st6" d="M298.37,384.82h-32.12c-3.7,0-6.44-3-6.12-6.71l2.05-23.43c0.32-3.7,3.59-6.71,7.29-6.71h32.12
			c3.7,0,6.44,3,6.12,6.71l-2.05,23.43C305.34,381.81,302.08,384.82,298.37,384.82z"/>
		<g class="st12">
			<path class="st9" d="M288.47,360.6c0.2-2.23-1.45-4.04-3.68-4.04c-2.23,0-4.19,1.81-4.39,4.04c-0.12,1.33,0.43,2.49,1.36,3.23
				l-0.71,8.07c-0.12,1.32,0.86,2.4,2.19,2.4c1.32,0,2.49-1.07,2.61-2.4l0.71-8.07C287.6,363.1,288.35,361.93,288.47,360.6z"/>
		</g>
		<g>
			<path class="st6" d="M301.88,352.86h-4.14l1.01-11.59c0.61-6.96-4.56-12.63-11.53-12.63s-13.13,5.67-13.74,12.63l-1.01,11.59
				h-4.14l1.01-11.59c0.81-9.25,8.99-16.77,18.24-16.77s16.11,7.52,15.3,16.77L301.88,352.86z"/>
		</g>
		<path class="st6" d="M325.87,287.13l0.1-1.11c0.1-1.14-0.74-2.06-1.88-2.06c-1.14,0-2.14,0.92-2.24,2.06l-0.1,1.11
			c-0.45,0-0.85,0.37-0.89,0.82l-0.26,2.96c-0.04,0.45,0.3,0.82,0.75,0.82h4.12c0.45,0,0.85-0.37,0.89-0.82l0.26-2.96
			C326.66,287.5,326.33,287.13,325.87,287.13z M324.04,284.47c0.86,0,1.49,0.7,1.42,1.55l-0.1,1.11h-3.1l0.1-1.11
			C322.43,285.17,323.19,284.47,324.04,284.47z"/>
		<g>
			<path class="st13" d="M263.85,288.32l-1.44-0.3c-0.17-0.04-0.26-0.21-0.19-0.38l0.6-1.42c0.13-0.3-0.24-0.53-0.47-0.29
				l-1.09,1.12c-0.13,0.13-0.34,0.13-0.44,0l-0.89-1.12c-0.19-0.24-0.6-0.02-0.52,0.29l0.35,1.42c0.04,0.17-0.08,0.35-0.25,0.38
				l-1.49,0.3c-0.32,0.06-0.36,0.51-0.05,0.58l1.44,0.3c0.17,0.04,0.26,0.21,0.19,0.38l-0.6,1.42c-0.13,0.3,0.24,0.53,0.47,0.29
				l1.09-1.12c0.13-0.13,0.34-0.13,0.44,0l0.89,1.12c0.19,0.24,0.6,0.02,0.52-0.29l-0.35-1.42c-0.04-0.17,0.08-0.35,0.25-0.38
				l1.49-0.3C264.12,288.83,264.16,288.38,263.85,288.32z"/>
			<path class="st13" d="M273.31,288.32l-1.44-0.3c-0.17-0.04-0.26-0.21-0.19-0.38l0.6-1.42c0.13-0.3-0.24-0.53-0.47-0.29
				l-1.09,1.12c-0.13,0.13-0.34,0.13-0.44,0l-0.89-1.12c-0.19-0.24-0.6-0.02-0.52,0.29l0.35,1.42c0.04,0.17-0.08,0.35-0.25,0.38
				l-1.49,0.3c-0.32,0.06-0.36,0.51-0.05,0.58l1.44,0.3c0.17,0.04,0.26,0.21,0.19,0.38l-0.6,1.42c-0.13,0.3,0.24,0.53,0.47,0.29
				l1.09-1.12c0.13-0.13,0.34-0.13,0.44,0l0.89,1.12c0.19,0.24,0.6,0.02,0.52-0.29l-0.35-1.42c-0.04-0.17,0.08-0.35,0.25-0.38
				l1.49-0.3C273.58,288.83,273.62,288.38,273.31,288.32z"/>
			<path class="st13" d="M282.77,288.32l-1.44-0.3c-0.17-0.04-0.26-0.21-0.19-0.38l0.6-1.42c0.13-0.3-0.24-0.53-0.47-0.29
				l-1.09,1.12c-0.13,0.13-0.34,0.13-0.44,0l-0.89-1.12c-0.19-0.24-0.6-0.02-0.52,0.29l0.35,1.42c0.04,0.17-0.08,0.35-0.25,0.38
				l-1.49,0.3c-0.32,0.06-0.36,0.51-0.05,0.58l1.44,0.3c0.17,0.04,0.26,0.21,0.19,0.38l-0.6,1.42c-0.13,0.3,0.24,0.53,0.47,0.29
				l1.09-1.12c0.13-0.13,0.34-0.13,0.44,0l0.89,1.12c0.19,0.24,0.6,0.02,0.52-0.29l-0.35-1.42c-0.04-0.17,0.08-0.35,0.25-0.38
				l1.49-0.3C283.04,288.83,283.08,288.38,282.77,288.32z"/>
			<path class="st13" d="M292.24,288.32l-1.44-0.3c-0.17-0.04-0.26-0.21-0.19-0.38l0.6-1.42c0.13-0.3-0.24-0.53-0.47-0.29
				l-1.09,1.12c-0.13,0.13-0.34,0.13-0.44,0l-0.89-1.12c-0.19-0.24-0.6-0.02-0.52,0.29l0.35,1.42c0.04,0.17-0.08,0.35-0.25,0.38
				l-1.49,0.3c-0.32,0.06-0.36,0.51-0.05,0.58l1.44,0.3c0.17,0.04,0.26,0.21,0.19,0.38l-0.6,1.42c-0.13,0.3,0.24,0.53,0.47,0.29
				l1.09-1.12c0.13-0.13,0.34-0.13,0.44,0l0.89,1.12c0.19,0.24,0.6,0.02,0.52-0.29l-0.35-1.42c-0.04-0.17,0.08-0.35,0.25-0.38
				l1.49-0.3C292.51,288.83,292.55,288.38,292.24,288.32z"/>
			<path class="st13" d="M301.7,288.32l-1.44-0.3c-0.17-0.04-0.26-0.21-0.19-0.38l0.6-1.42c0.13-0.3-0.24-0.53-0.47-0.29l-1.09,1.12
				c-0.13,0.13-0.34,0.13-0.44,0l-0.89-1.12c-0.19-0.24-0.6-0.02-0.52,0.29l0.35,1.42c0.04,0.17-0.08,0.35-0.25,0.38l-1.49,0.3
				c-0.32,0.06-0.36,0.51-0.05,0.58l1.44,0.3c0.17,0.04,0.26,0.21,0.19,0.38l-0.6,1.42c-0.13,0.3,0.24,0.53,0.47,0.29l1.09-1.12
				c0.13-0.13,0.34-0.13,0.44,0l0.89,1.12c0.19,0.24,0.6,0.02,0.52-0.29l-0.35-1.42c-0.04-0.17,0.08-0.35,0.25-0.38l1.49-0.3
				C301.97,288.83,302.01,288.38,301.7,288.32z"/>
			<path class="st13" d="M311.16,288.32l-1.44-0.3c-0.17-0.04-0.26-0.21-0.19-0.38l0.6-1.42c0.13-0.3-0.24-0.53-0.47-0.29
				l-1.09,1.12c-0.13,0.13-0.34,0.13-0.44,0l-0.89-1.12c-0.19-0.24-0.6-0.02-0.52,0.29l0.35,1.42c0.04,0.17-0.08,0.35-0.25,0.38
				l-1.49,0.3c-0.32,0.06-0.36,0.51-0.05,0.58l1.44,0.3c0.17,0.04,0.26,0.21,0.19,0.38l-0.6,1.42c-0.13,0.3,0.24,0.53,0.47,0.29
				l1.09-1.12c0.13-0.13,0.34-0.13,0.44,0l0.89,1.12c0.19,0.24,0.6,0.02,0.52-0.29l-0.35-1.42c-0.04-0.17,0.08-0.35,0.25-0.38
				l1.49-0.3C311.43,288.83,311.47,288.38,311.16,288.32z"/>
		</g>
		<g>
			<path class="st13" d="M288.35,267.61h-17.77c-1.1,0-2.08,0.9-2.17,2c-0.1,1.1,0.72,2,1.82,2H288c1.1,0,2.08-0.9,2.17-2
				C290.27,268.51,289.46,267.61,288.35,267.61z"/>
			<path class="st13" d="M306.39,267.61h-10.31c-1.1,0-2.08,0.9-2.17,2c-0.1,1.1,0.72,2,1.82,2h10.31c1.1,0,2.08-0.9,2.17-2
				C308.31,268.51,307.49,267.61,306.39,267.61z"/>
		</g>
		<path class="st13" d="M320,358.26c-6.7,2.68-12.57,6.58-16.59,11.01c-2.36-2.01-5.71-3.4-9.72-4.04l-0.47-0.07l-0.21,2.36
			l0.26,0.1c3.96,1.5,7.19,4.16,9.33,7.69l0.34,0.55l0.37-0.59c4.12-6.6,10.13-12.12,16.92-15.56l0.23-0.12l0.14-1.57L320,358.26z"
			/>
	</g>
</g>
<g id="Policy">
	<path class="st14" d="M230.64,161.37c-1.25,2.2-2.07,4.65-2.3,7.25l-14.89,170.22h46.08l9.26-35.49l-3.05-35.49l9.26-35.49
		l-3.05-35.49l9.26-35.49H230.64z"/>
	<g>
		<g>
			<polygon class="st6" points="267.95,186.87 277.21,151.37 160.68,151.37 151.43,186.87 154.47,222.36 145.22,257.85 
				148.26,293.35 139.01,328.84 255.53,328.84 264.79,293.35 261.74,257.85 271,222.36 			"/>
			<polygon class="st15" points="267.95,186.87 277.21,151.37 160.68,151.37 151.43,186.87 154.47,222.36 145.22,257.85 
				148.26,293.35 139.01,328.84 255.53,328.84 264.79,293.35 261.74,257.85 271,222.36 			"/>
			<polygon class="st16" points="267.95,186.87 151.43,186.87 160.68,151.37 277.21,151.37 			"/>
			<polygon class="st16" points="261.74,257.85 145.22,257.85 154.47,222.36 271,222.36 			"/>
			<polygon class="st16" points="255.53,328.84 139.01,328.84 148.26,293.35 264.79,293.35 			"/>
		</g>
		<path class="st14" d="M252.36,201.7c-1,0.31-2.28,0.5-3.68,0.5c-2.06,0-3.86-0.41-4.89-1.02c-0.28-0.17-0.59-0.25-0.9-0.25l0,0
			c-0.29,0-0.57,0.08-0.84,0.23c-0.02,0.01-0.04,0.01-0.06,0.03h0l0,0c-0.01,0.01-0.02,0.01-0.04,0.02
			c-0.38,0.22-0.86,0.42-1.42,0.57c-0.96,0.27-2.15,0.43-3.43,0.43c-0.35,0-0.69-0.01-1.02-0.03c-1-0.07-1.91-0.23-2.66-0.47
			c-0.13-0.04-0.26-0.07-0.39-0.07c-0.91-0.06-1.72,0.64-1.72,1.6v0v1.08H186c-3.51,0-6.35,2.84-6.35,6.35v6.4
			c0,3.51,2.84,6.35,6.35,6.35h51.53c0.11,0,0.22-0.01,0.34-0.02c0.56,0.46,1.13,0.92,1.75,1.38c0.73,0.56,1.51,1.12,2.32,1.71
			c0.56,0.41,1.34,0.41,1.9,0c6.48-4.7,10.64-7.94,10.64-16.85v-6.4C254.47,202.13,253.41,201.37,252.36,201.7z"/>
		<g>
			<path class="st6" d="M236.55,219.87h-51.53c-3.51,0-6.35-2.84-6.35-6.35v-6.4c0-3.51,2.84-6.35,6.35-6.35h51.53
				c3.51,0,6.35,2.84,6.35,6.35v6.4C242.89,217.03,240.05,219.87,236.55,219.87z"/>
			<g>
				<g>
					<path class="st6" d="M247.69,198.68c-2.06,0-3.86-0.41-4.89-1.02c-0.57-0.34-1.24-0.34-1.8,0c-1.03,0.61-2.84,1.02-4.89,1.02
						c-1.4,0-2.68-0.19-3.68-0.5c-1.05-0.33-2.11,0.43-2.11,1.52v6.4c0,8.91,4.16,12.15,10.64,16.85c0.56,0.41,1.34,0.41,1.9,0
						c6.48-4.7,10.64-7.94,10.64-16.85v-6.4c0-1.1-1.07-1.85-2.11-1.52C250.37,198.49,249.09,198.68,247.69,198.68z"/>
					<path class="st7" d="M247.69,198.68c-2.06,0-3.86-0.41-4.89-1.02c-0.57-0.34-1.24-0.34-1.8,0c-1.03,0.61-2.84,1.02-4.89,1.02
						c-1.4,0-2.68-0.19-3.68-0.5c-1.05-0.33-2.11,0.43-2.11,1.52v6.4c0,8.91,4.16,12.15,10.64,16.85c0.56,0.41,1.34,0.41,1.9,0
						c6.48-4.7,10.64-7.94,10.64-16.85v-6.4c0-1.1-1.07-1.85-2.11-1.52C250.37,198.49,249.09,198.68,247.69,198.68z"/>
					<path class="st17" d="M241,197.66c-1.03,0.61-2.84,1.02-4.89,1.02c-1.4,0-2.68-0.19-3.68-0.5c-1.05-0.33-2.11,0.43-2.11,1.52
						v6.4c0,8.91,4.16,12.15,10.64,16.85c0.28,0.2,0.62,0.31,0.95,0.31V197.4C241.59,197.4,241.28,197.49,241,197.66z"/>
				</g>
				<path class="st13" d="M251.19,204.36c-4.19,1.73-7.77,4.26-10.12,7.13c-1.64-1.3-3.89-2.2-6.53-2.61l-0.31-0.05v1.53l0.18,0.06
					c2.65,0.97,4.89,2.69,6.48,4.98l0.25,0.36l0.21-0.39c2.29-4.27,5.87-7.85,10.07-10.08l0.14-0.08v-1.02L251.19,204.36z"/>
			</g>
		</g>
		<g>
			<path class="st6" d="M275.15,161.36h-4.42c-2.45,0-4.27-1.99-4.05-4.44l0.39-4.42c0.21-2.45,2.38-4.44,4.83-4.44h4.42
				c2.45,0,4.27,1.99,4.05,4.44l-0.39,4.42C279.76,159.37,277.6,161.36,275.15,161.36z"/>
			<polygon class="st9" points="276.99,152.49 276.03,151.43 273.61,153.65 271.59,151.43 270.44,152.49 272.47,154.71 
				270.06,156.93 271.02,157.98 273.43,155.76 275.46,157.98 276.6,156.93 274.57,154.71 			"/>
		</g>
	</g>
</g>
<g id="Character">
	<g>
		<g>
			<path class="st18" d="M176.37,199.49c2.56,2.79,5.01,5.67,7.43,8.59c2.42,2.91,4.78,5.87,7.11,8.86c0.1,0.13,0.06,0.08,0.09,0.12
				c0.01,0.02,0.01,0.05,0.03,0.06c0.03,0.03,0.04,0.08,0.07,0.1c0.05,0.07,0.11,0.13,0.18,0.2c0.14,0.13,0.34,0.22,0.55,0.26
				c0.11,0.02,0.22,0.03,0.34,0.02c0.06,0.01,0.12-0.01,0.18-0.01c0.03,0,0.06-0.02,0.09-0.02c0.05-0.02,0.02,0.02,0.16-0.06
				l2.5-1.36c3.36-1.78,6.75-3.52,10.25-5.08l2.93,3.63c-2.82,2.6-5.76,5.84-8.73,8.22l-2.24,1.76c-0.06,0.05-0.3,0.21-0.45,0.31
				c-0.17,0.11-0.34,0.23-0.52,0.33c-0.36,0.2-0.73,0.4-1.12,0.55c-0.77,0.33-1.59,0.54-2.42,0.67c-1.67,0.25-3.4,0.08-5.02-0.5
				c-0.81-0.29-1.59-0.68-2.3-1.17c-0.36-0.24-0.7-0.51-1.03-0.79c-0.17-0.14-0.32-0.29-0.47-0.44l-0.4-0.4
				c-2.65-2.71-5.26-5.45-7.82-8.25c-2.56-2.79-5.09-5.61-7.51-8.52L176.37,199.49z"/>
			<path class="st18" d="M203.99,213.38l2.33-7.49l6.14,3.06c0,0-0.89,5.46-5.36,6.41L203.99,213.38z"/>
			<polygon class="st18" points="208.78,203.82 214.32,205.34 212.46,208.95 206.32,205.89 			"/>
		</g>
		<g>
			<path class="st18" d="M144.09,201.53c-0.67,3.18-1.48,6.33-2.34,9.46c-0.85,3.14-1.78,6.26-2.75,9.36l-0.36,1.17l-0.18,0.58
				c-0.04,0.13-0.06,0.16-0.1,0.24c-0.11,0.29-0.18,0.61-0.19,0.95c-0.02,0.67,0.14,1.41,0.58,2.05c0.04,0.1,0.38,0.47,0.65,0.76
				l0.83,0.9l1.64,1.83c1.08,1.24,2.15,2.48,3.17,3.78l-3.48,4.03c-1.44-0.82-2.82-1.7-4.2-2.59l-2.05-1.35l-1.01-0.69
				c-0.34-0.24-0.62-0.4-1.17-0.86c-1.9-1.61-3.32-3.9-3.84-6.45c-0.27-1.27-0.33-2.59-0.18-3.9c0.04-0.31,0.1-0.68,0.15-0.95
				l0.11-0.6l0.21-1.2c0.56-3.21,1.16-6.41,1.83-9.58c0.67-3.18,1.38-6.35,2.24-9.49L144.09,201.53z"/>
			<path class="st18" d="M141.63,232.35l4.13-2.11l1.82,7.01c0,0-3.31,1.27-5.87-0.36L141.63,232.35z"/>
			<polygon class="st18" points="151.45,227.99 151.64,234.43 147.03,237.44 145.43,230.37 			"/>
		</g>
		<path class="st13" d="M164.94,168.47c0.1,0.5,0.44,0.84,0.77,0.78c0.32-0.07,0.5-0.52,0.4-1.02s-0.45-0.84-0.77-0.78
			C165.02,167.52,164.84,167.97,164.94,168.47z"/>
		<path class="st19" d="M165.34,169.32c0,0,1.71,2.63,3.23,3.76c-0.71,1-2.28,0.93-2.28,0.93L165.34,169.32z"/>
		<path class="st13" d="M162.57,166.09c-0.07,0-0.14-0.03-0.2-0.08c-0.12-0.11-0.13-0.3-0.02-0.42c1.12-1.21,2.47-0.99,2.53-0.98
			c0.16,0.03,0.27,0.18,0.24,0.34c-0.03,0.16-0.18,0.27-0.34,0.24l0,0c-0.04-0.01-1.1-0.16-1.99,0.8
			C162.73,166.05,162.65,166.09,162.57,166.09z"/>
		<path class="st18" d="M150.52,175.44c1.1,4.59,2.2,12.99-1.73,16.05c0,0,1.54,4.65,12,4.65c11.5,0,5.5-3,5.5-3
			c-6.28-1.22-6.11-6.67-5.02-10.24L150.52,175.44z"/>
		<path class="st13" d="M147.56,192.34c-0.69-1.27-1.44-2.73,0.12-3.19c1.72-0.5,12.75-1.43,15.99-0.49c-1,1.77,0.69,3.95,0.69,3.95
			L147.56,192.34z"/>
		<polygon class="st18" points="156.7,406.92 163.91,406.92 164.63,392.4 157.41,392.4 		"/>
		<polygon class="st18" points="110.91,404.92 118.22,405.31 122.66,391 115.35,390.61 		"/>
		<path class="st13" d="M118,404.73l-6.88-1.49c-0.25-0.05-0.51,0.07-0.61,0.31l-2.39,5.18c-0.25,0.54,0.08,1.17,0.66,1.28
			c2.41,0.48,3.61,0.59,6.64,1.25c1.86,0.4,6.07,1.43,8.64,1.98c2.52,0.54,3.46-1.91,2.46-2.37c-4.5-2.06-6.38-3.86-7.59-5.55
			C118.69,405.02,118.36,404.81,118,404.73z"/>
		<path class="st13" d="M163.53,406.19h-6.85c-0.26,0-0.48,0.18-0.53,0.43l-1.24,5.57c-0.13,0.58,0.31,1.13,0.9,1.12
			c2.47-0.04,6.04-0.19,9.14-0.19c3.63,0,6.77,0.2,11.02,0.2c2.57,0,3.29-2.6,2.21-2.84c-4.91-1.07-8.91-1.19-13.15-3.8
			C164.58,406.4,164.07,406.19,163.53,406.19z"/>
		<path class="st13" d="M135.72,193.61c-5.45,2.59-6.92,18.28-6.92,18.28l13.47,6.22c0,0,3.34-4.93,3.6-12.67
			C146.14,197.34,141.29,190.97,135.72,193.61z"/>
		<path class="st20" d="M143.03,203.29c-2.43,3.77-2.2,9.62-1.36,14.55l0.6,0.28c0,0,3.35-4.93,3.6-12.67
			c0.01-0.48,0.01-0.96,0-1.43L143.03,203.29z"/>
		<g>
			<path class="st6" d="M173.31,193.23c0,0,6.67,7.54,0.37,54.19c-10.1,0-28.62,0-33.54,0c-0.23-5.15,3-30.26-1.96-54.52
				c0,0,5.75-1.15,11.23-1.42c4.29-0.21,10.49-0.34,14.26,0C168.63,191.95,173.31,193.23,173.31,193.23z"/>
			<path class="st21" d="M173.31,193.23c0,0,6.67,7.54,0.37,54.19c-10.1,0-28.62,0-33.54,0c-0.23-5.15,3-30.26-1.96-54.52
				c0,0,5.75-1.15,11.23-1.42c4.29-0.21,10.49-0.34,14.26,0C168.63,191.95,173.31,193.23,173.31,193.23z"/>
		</g>
		<path class="st14" d="M176.24,207.49l-0.13-0.11l-6.67-3.56c-0.68,10.27,3.91,16.71,6.64,19.52
			C176.47,216.76,176.46,211.57,176.24,207.49z"/>
		<polygon class="st14" points="164.63,392.4 164.26,399.89 157.04,399.89 157.41,392.4 		"/>
		<polygon class="st14" points="115.35,390.62 122.66,391 120.37,398.38 113.06,397.99 		"/>
		<path class="st18" d="M148.2,170.78c1.61,6.01,2.25,9.61,5.96,12.11c5.58,3.76,12.53-0.56,12.74-6.93
			c0.2-5.73-2.47-14.6-8.92-15.81C151.62,158.96,146.59,164.77,148.2,170.78z"/>
		<path class="st13" d="M161.79,247.43c0,0-7.12,47.92-11.02,65.87c-4.28,19.66-27.22,84.7-27.22,84.7l-11.22-2.43
			c0,0,14.38-53,17.97-80.49c1.4-10.72,3.09-28.01,5.23-42.43c2.07-13.96,4.62-25.22,4.62-25.22H161.79z"/>
		<path class="st6" d="M126.24,394.25c0.05,0.01-2.09,4.06-2.09,4.06l-12.63-2.73l1.06-3.8L126.24,394.25z"/>
		<path class="st22" d="M126.24,394.25c0.05,0.01-2.09,4.06-2.09,4.06l-12.63-2.73l1.06-3.8L126.24,394.25z"/>
		<path class="st12" d="M157.29,264.5c-8.23,1.61-7.36,32.3-6.37,48.08c2.37-11.16,5.85-32.62,8.22-47.86
			C158.6,264.45,157.98,264.36,157.29,264.5z"/>
		<path class="st13" d="M173.68,247.43c0,0,3.35,46.88,2.66,66c-0.71,19.89-10.14,85.01-10.14,85.01h-10.62
			c0,0-0.39-63.96-0.86-83.49c-0.52-21.29-3.09-67.52-3.09-67.52H173.68z"/>
		<path class="st6" d="M168.25,394.21c0.05,0-0.6,4.41-0.6,4.41h-12.92l-0.35-3.94L168.25,394.21z"/>
		<path class="st22" d="M168.25,394.21c0.05,0-0.6,4.41-0.6,4.41h-12.92l-0.35-3.94L168.25,394.21z"/>
		<path class="st13" d="M169.4,202.02c0,12.58,6.7,17.76,6.7,17.76l10.88-10.64c0,0-3.7-6.37-8.79-12.23
			C171.9,189.68,169.4,193.92,169.4,202.02z"/>
		<path class="st14" d="M166.52,178.24c-0.28,0.77-1,2.08-2.82,2.6c-2.66,0.76-2.69,3.01-2.69,3.01l0.03,0.04
			C163.57,183.05,165.68,180.96,166.52,178.24z"/>
		<path class="st13" d="M163.7,158.83c2.24-2.83-1.21-2.96-1.21-2.96c0.9-3.37-3.14-1.56-3.14-1.56c-2.42-3.34-3.79,0.72-3.79,0.72
			c-2.51-2.83-2.97,1.79-2.97,1.79c-2.52-3.59-3.8,1.59-3.8,1.59c-2.32-3.73-3.74,1.13-3.74,1.13c-4.79-1.71-2.51,3.26-2.51,3.26
			c-4.09,0.11-0.81,3.28-0.81,3.28c-4.9,0.01-0.58,2.82-0.58,2.82c-3.89,2.55,0.99,3.24,0.99,3.24c-3.17,4.96,2.28,3.12,2.28,3.12
			c-2.21,4.91,2.69,2.75,2.69,2.75c-0.32,4.74,2.42,3.45,3.74,2.57c0.25,0.95,0.73,1.97,1.61,2.08c1.71,0.22,2.04-3,2.04-3
			s1.59,1.23,2.91,0.56c1.33-0.67,0.83-2.36,0.83-2.36s1.02,0.76,1.95,0.03c0.57-0.44,0.57-3.63-0.15-4.75l2.6-1.02
			c0,0,1.93-0.27,1.07-2.82c-0.86-2.55-0.13-4.56-0.13-4.56c2.94-1.38,0.53-3.03,0.53-3.03C167.49,159.53,163.7,158.83,163.7,158.83
			z"/>
		<path class="st18" d="M158.43,171.03c0.41,1.58,1.45,2.93,2.53,3.74c1.63,1.21,2.85,0.02,2.73-1.83c-0.1-1.66-1.08-4.3-2.88-4.79
			C159.04,167.67,157.96,169.23,158.43,171.03z"/>
	</g>
</g>
</svg>
